<svg style="width:1em; height:1em; vertical-align:middle;" viewBox="0 0 1024 1024" version="1.1" xmlns="http://www.w3.org/2000/svg">
  <g fill="currentColor" fill-rule="evenodd">
    <path d="M2.275 898.215l50.613-123.004c42.462 36.675 90.421 55.012 143.878 55.012 55.353 0 83.028-21.428 83.028-64.283 0-25.137-8.341-45.74-25.022-61.811s-49.096-35.026-97.246-56.866c-105.018-47.389-157.526-113.732-157.526-199.031 0-57.278 20.093-101.885 60.281-133.821s91.558-47.903 154.114-47.903c63.314 0 122.836 15.453 178.568 46.358l-40.946 119.913c-31.088-28.845-74.308-43.268-129.661-43.268-49.666 0-74.498 21.428-74.498 64.283 0 16.895 8.151 32.142 24.454 45.74s51.182 31.832 104.639 54.703c53.457 22.87 91.938 50.582 115.444 83.136s35.259 71.906 35.259 118.059c0 61.399-20.946 109.714-62.84 144.946s-98.856 52.848-170.891 52.848c-40.567 0-73.076-3.606-97.53-10.817s-55.826-21.943-94.118-44.195v0zM494.253 972.8v-46.976l263.871-422.168c52.699-84.475 79.048-155.557 79.048-213.247 0-68.404-37.723-102.606-113.169-102.606-57.627 0-104.070 33.171-139.328 99.515l-99.52-85.299c19.715-43.268 50.708-79.221 92.98-107.86s88.999-42.959 140.181-42.959c85.304 0 152.029 21.119 200.178 63.356s72.223 100.854 72.223 175.852c0 68.816-30.898 154.527-92.696 257.133l-170.606 282.476h263.302l33.283 142.783h-529.747z"></path>
  </g>
</svg>
